<svg xmlns="http://www.w3.org/2000/svg" viewBox="0 0 192.89 191.56"><defs><style>.cls-1{fill:#212121;}.cls-2{fill:#6cbb74;}.cls-3{fill:#231f20;}.cls-4{opacity:0.25;}.cls-5{fill:#fff;}</style></defs><g id="Layer_2" data-name="Layer 2"><g id="Layer_1-2" data-name="Layer 1"><path class="cls-1" d="M96.66,16l-.3-.13a78.81,78.81,0,0,0,0,157.62s-55.49-23.32,0-78.81l.3-.31C149.24,41.54,101,18,96.66,16Z"/><path class="cls-1" d="M96.36,15.9h.3V16Z"/><path class="cls-2" d="M96.66,15.91V16c4.3,1.95,52.58,25.51,0,78.37l-.3.31c-55.49,55.49,0,78.81,0,78.81h.3a78.81,78.81,0,0,0,0-157.61Z"/><path class="cls-1" d="M96.47,175.24a80.61,80.61,0,1,1,80.61-80.6A80.7,80.7,0,0,1,96.47,175.24ZM96.47,16a78.61,78.61,0,1,0,78.61,78.61A78.69,78.69,0,0,0,96.47,16Z"/><path class="cls-3" d="M60.4,10.58l0,0,0,1.53-.26,3.76-3-2.23-1.27-1,0,0,2.62,5.64-1.73.81L52.7,10.61l2-.9,3.92,3h0l.2-4.93,2-.91,3.94,8.48L63,16.15Z"/><path class="cls-3" d="M77,11.57l-1.21-2-3,.79-.08,2.32-2,.52.61-9.82,2.43-.64L79,11Zm-4-6.7-.07,0-.09,3.7L74.82,8Z"/><path class="cls-3" d="M86.59,9.92l-.38-3.64L82.45,1,84.71.71l2.38,3.5h0L88.65.31l2.2-.23-2.6,6,.38,3.65Z"/><path class="cls-3" d="M102.92.19l-.26,6.64a2.77,2.77,0,0,1-3.19,2.73,2.89,2.89,0,0,1-3-2.75l1.91-.3c.12.8.49,1.24,1.12,1.27a1,1,0,0,0,1.12-1.13l.19-4.91L98,1.63,98,0Z"/><path class="cls-3" d="M113.28,1.49l-1.11,5.62c-.26,1.29.08,2,1.27,2.27s1.78-.32,2-1.61l1.11-5.62,2,.39L117.46,8c-.54,2.7-1.75,3.72-4.38,3.2s-3.35-1.92-2.82-4.63l1.08-5.41Z"/><path class="cls-3" d="M128.59,5.61l-2,5.36c-.47,1.22-.25,2,.87,2.44s1.82,0,2.29-1.23l2.05-5.36,1.85.71-2,5.15c-1,2.58-2.35,3.38-4.85,2.42s-3-2.46-2-5l2-5.16Z"/><path class="cls-3" d="M141.27,17l.19-2.07,0,0-3.22,5.41-1.65-1,4.79-8,1.91,1.14-.06,5.11L143,19.58l0,0,3.22-5.41,1.64,1-4.78,8-1.91-1.14Z"/><path class="cls-3" d="M1.23,79l9.27,1.24-.27,2-7.48-1-.47,3.53L.49,84.53Z"/><path class="cls-3" d="M.1,89.92l9.35.15-.1,6.37-1.81,0,.07-4.33-1.91,0-.06,3.71-1.8,0L3.9,92l-2,0-.07,4.33L0,96.29Z"/><path class="cls-3" d="M1.58,101.41l1.5,1.18A3,3,0,0,0,2.27,105c.11,1,.61,1.41,1.29,1.34.5-.06.85-.31.87-1.19l0-.94c0-2,.89-3,2.45-3.16s3,1,3.22,3.18a4.19,4.19,0,0,1-.95,3.37l-1.51-1.2a2.42,2.42,0,0,0,.66-2.09c-.1-.91-.5-1.31-1.06-1.25s-.84.43-.87,1.22l0,.94c-.09,1.94-.84,2.95-2.44,3.13-1.78.2-3.17-1-3.43-3.28A4.54,4.54,0,0,1,1.58,101.41Z"/><path class="cls-3" d="M3.21,113.31l1.63,1a3.07,3.07,0,0,0-.49,2.53c.24,1,.78,1.33,1.44,1.17.5-.12.81-.42.72-1.3l-.1-.92c-.21-2,.51-3.07,2-3.44s3.07.6,3.59,2.74a4.18,4.18,0,0,1-.51,3.46l-1.65-1a2.41,2.41,0,0,0,.39-2.16c-.22-.88-.66-1.23-1.21-1.1s-.78.54-.71,1.32l.08.93c.15,1.94-.47,3-2,3.42-1.74.42-3.26-.56-3.81-2.83A4.51,4.51,0,0,1,3.21,113.31Z"/><path class="cls-3" d="M11.76,130.05c2.87-1.35,5.13-.62,6.21,1.66a3.46,3.46,0,0,1-.5,4.1l-1.58-1.2a1.65,1.65,0,0,0,.44-2.13c-.51-1.08-1.57-1.46-2.91-.83l-1.36.64c-1.33.63-1.72,1.69-1.21,2.77a1.91,1.91,0,0,0,2.05,1.09l-.16,1.91a3.64,3.64,0,0,1-3.53-2.23C8.14,133.55,8.9,131.39,11.76,130.05Z"/><path class="cls-3" d="M13.54,143.66l7.9-5,1.09,1.72-6.37,4,1.9,3-1.53,1Z"/><path class="cls-3" d="M19.45,152.44l1.27-1,.75.95,4.79-3.8-.75-.94,1.27-1,2.76,3.49-1.27,1-.75-.94L22.73,154l.75.95-1.27,1Z"/><path class="cls-3" d="M28.9,156.64c2.24-2.23,4.61-2.32,6.4-.54a3.49,3.49,0,0,1,.92,4l-1.89-.6a1.66,1.66,0,0,0-.31-2.15c-.85-.84-2-.83-3,.21l-1.06,1.06a2,2,0,0,0-.21,3A1.93,1.93,0,0,0,32,162l.49,1.85a3.62,3.62,0,0,1-4.07-.91C26.67,161.16,26.66,158.88,28.9,156.64Z"/><path class="cls-3" d="M40.26,167.65l-1.86.43-1.57,2.07-1.63-1.23,5.67-7.45,1.62,1.24-2.69,3.54.06,0,2.15-.63,3.28-.83,1.83,1.4-4.84,1.15-.6,6.46-1.91-1.45Z"/><path class="cls-3" d="M45.71,176.39l.83-1.4,1,.61,3.1-5.26-1-.61.82-1.4,3.84,2.25-.82,1.4-1-.61-3.1,5.27,1,.61-.82,1.4Z"/><path class="cls-3" d="M59,178.39l-.08-2.07,0,0-2.51,5.77-1.75-.76,3.72-8.57,2,.88.59,5.08.07,2.07,0,0L63.54,175l1.76.76-3.73,8.57-2-.88Z"/><path class="cls-3" d="M73.56,186.53l-.07,0a2.14,2.14,0,0,1-2.74,1c-2.07-.56-3.26-2.6-2.44-5.63s2.92-4.26,5.36-3.59a3.74,3.74,0,0,1,2.91,3l-1.85.48a2.09,2.09,0,0,0-4.13-.12l-.4,1.44c-.4,1.5.19,2.41,1.41,2.74,1,.27,1.9,0,2.14-.86l.12-.45-1.68-.46.44-1.64,3.56,1-1.37,5L73.17,188Z"/><path class="cls-3" d="M83,188.65l0,.27a3.79,3.79,0,0,1-1.86,2.64l-1.32-.21a4.36,4.36,0,0,0,1.58-1.62,1,1,0,0,1-.73-1.17l0-.27a1,1,0,0,1,1.33-.88A1,1,0,0,1,83,188.65Z"/><path class="cls-3" d="M102.1,184.49h0l-.63,1.39-1.71,3.37L97.82,186l-.76-1.45h0l.21,6.23-1.91.07L95,181.52l2.16-.08,2.44,4.3h0l2.12-4.45,2.17-.08.32,9.35-1.92.07Z"/><path class="cls-3" d="M109.26,185.3c-.58-3.12.72-5.05,3.16-5.5s4.35.88,4.92,4-.72,5-3.16,5.51S109.84,188.42,109.26,185.3Zm6.09-.42-.25-1.37c-.27-1.46-1.15-2.16-2.35-1.93s-1.77,1.18-1.5,2.64l.26,1.37c.27,1.47,1.14,2.16,2.34,1.94S115.62,186.34,115.35,184.88Z"/><path class="cls-3" d="M125.77,186.23l-1.93.65-3-8.86,4.2-1.41a2.74,2.74,0,0,1,3.63,1.93,2.67,2.67,0,0,1-.75,3.09l2.91,2.9-2.15.72-2.64-2.73-1.39.46Zm.39-5.55a.87.87,0,0,0,.63-1.19l-.19-.56a.86.86,0,0,0-1.22-.56l-2,.68.78,2.31Z"/><path class="cls-3" d="M136.07,182.32l-4.11-8.4,5.71-2.8.8,1.63-3.89,1.9.84,1.72,3.34-1.63.79,1.61L136.21,178l.89,1.81,3.89-1.9.8,1.63Z"/><path class="cls-3" d="M146.73,165.52l2.79-2.16c2-1.51,4.21-1.27,6.11,1.19s1.57,4.7-.39,6.22l-2.79,2.15Zm7.4,3.81c1-.73,1.15-1.71.24-2.89l-.89-1.14a1.83,1.83,0,0,0-2.86-.5l-1.17.9,3.51,4.54Z"/><path class="cls-3" d="M159.22,161.37c-2.27-2.22-2.32-4.54-.59-6.32s4.06-1.78,6.33.44,2.32,4.54.59,6.32S161.49,163.59,159.22,161.37Zm4.73-3.85-1-1c-1.07-1-2.18-1.1-3-.23s-.76,2,.31,3l1,1c1.07,1,2.18,1.11,3,.23S165,158.55,164,157.52Z"/><path class="cls-3" d="M168.12,151.82c-2.54-1.88-3-4.22-1.48-6.24a3.47,3.47,0,0,1,3.85-1.51l-.32,2a1.66,1.66,0,0,0-2.08.62,2,2,0,0,0,.66,2.95l1.2.9c1.19.87,2.3.71,3-.25a1.9,1.9,0,0,0,0-2.32l1.76-.76a3.64,3.64,0,0,1-.29,4.16C172.92,153.36,170.66,153.7,168.12,151.82Z"/><path class="cls-3" d="M174.57,136.72l6.59,3.68-1,1.78-6.59-3.68-1.24,2.21-1.58-.88,3.47-6.2,1.58.88Z"/><path class="cls-3" d="M180.13,132.19c-2.95-1.18-3.89-3.32-3-5.62s3.07-3.2,6-2,3.88,3.31,3,5.61S183.07,133.36,180.13,132.19Zm2.9-5.38-1.3-.52c-1.38-.55-2.43-.18-2.89.95s.06,2.13,1.44,2.68l1.29.52c1.38.55,2.44.18,2.89-.95S184.41,127.36,183,126.81Z"/><path class="cls-3" d="M189.73,118.74l-.48,2-9.09-2.22,1.05-4.3a2.75,2.75,0,0,1,3.58-2,2.67,2.67,0,0,1,2.21,2.29l4-.91-.54,2.2-3.71.77-.35,1.42Zm-4.49-3.3a.87.87,0,0,0-.66-1.17l-.58-.14a.88.88,0,0,0-1.13.73l-.5,2.09,2.36.57Z"/><path class="cls-3" d="M191.84,108.4l-1.61-.2.15-1.2-6.07-.74-.14,1.19-1.61-.19.54-4.42,1.61.2-.15,1.19,6.07.75.15-1.2,1.61.2Z"/><path class="cls-3" d="M188.39,95.63l-1.89.87v0l6.3.1,0,1.91-9.35-.15,0-2.22,4.46-2.49,1.89-.87v0l-6.29-.1,0-1.91,9.35.15,0,2.22Z"/><path class="cls-3" d="M190.1,78.84v.07c.95,0,1.77.75,2,2.14.3,2.12-1.11,4-4.21,4.47s-5.07-1-5.42-3.51a3.75,3.75,0,0,1,1.64-3.87l1.18,1.51a1.93,1.93,0,0,0-1,2.11,2,2,0,0,0,2.54,1.73l1.49-.21c1.54-.22,2.14-1.13,2-2.37-.14-1-.73-1.75-1.63-1.62l-.47.06.25,1.73-1.69.23-.51-3.64,5.15-.73.25,1.69Z"/><path class="cls-3" d="M180.25,71.93a87.2,87.2,0,0,0-28.48-44.07l1.28-1.54A89.21,89.21,0,0,1,182.17,71.4Z"/><path class="cls-3" d="M10.09,75.29l-1.95-.42a87.84,87.84,0,0,1,40-55.74l1,1.7A85.87,85.87,0,0,0,10.09,75.29Z"/><g class="cls-4"><circle class="cls-5" cx="95.74" cy="93.98" r="52.51"/></g></g></g></svg>